<?xml version="1.0" encoding="UTF-8" standalone="no"?>
<!DOCTYPE svg PUBLIC "-//W3C//DTD SVG 1.1//EN"
 "http://www.w3.org/Graphics/SVG/1.1/DTD/svg11.dtd">
<!-- Generated by graphviz version 2.40.1 (20161225.0304)
 -->
<!-- Title: controllers_diagram Pages: 1 -->
<svg width="370pt" height="600pt"
 viewBox="0.00 0.00 370.00 600.00" xmlns="http://www.w3.org/2000/svg" xmlns:xlink="http://www.w3.org/1999/xlink">
<g id="graph0" class="graph" transform="scale(1 1) rotate(0) translate(4 596)">
<title>controllers_diagram</title>
<polygon fill="transparent" stroke="transparent" points="-4,4 -4,-596 366,-596 366,4 -4,4"/>
<!-- _diagram_info -->
<g id="node1" class="node">
<title>_diagram_info</title>
<text text-anchor="start" x="8" y="-441.6" font-family="Times,serif" font-size="13.00" fill="#000000">Controllers diagram</text>
<text text-anchor="start" x="8" y="-427.6" font-family="Times,serif" font-size="13.00" fill="#000000">Date: May 14 2020 &#45; 20:58</text>
<text text-anchor="start" x="8" y="-413.6" font-family="Times,serif" font-size="13.00" fill="#000000">Migration version: 20200515005354</text>
<text text-anchor="start" x="8" y="-399.6" font-family="Times,serif" font-size="13.00" fill="#000000">Generated by RailRoady 1.5.3</text>
<text text-anchor="start" x="8" y="-385.6" font-family="Times,serif" font-size="13.00" fill="#000000">http://railroady.prestonlee.com</text>
</g>
<!-- ApplicationController -->
<g id="node2" class="node">
<title>ApplicationController</title>
<path fill="none" stroke="#000000" d="M120,-.5C120,-.5 232,-.5 232,-.5 238,-.5 244,-6.5 244,-12.5 244,-12.5 244,-82.5 244,-82.5 244,-88.5 238,-94.5 232,-94.5 232,-94.5 120,-94.5 120,-94.5 114,-94.5 108,-88.5 108,-82.5 108,-82.5 108,-12.5 108,-12.5 108,-6.5 114,-.5 120,-.5"/>
<text text-anchor="middle" x="176" y="-79.3" font-family="Times,serif" font-size="14.00" fill="#000000">ApplicationController</text>
<polyline fill="none" stroke="#000000" points="108,-71.5 244,-71.5 "/>
<polyline fill="none" stroke="#000000" points="108,-47.5 244,-47.5 "/>
<polyline fill="none" stroke="#000000" points="108,-23.5 244,-23.5 "/>
<text text-anchor="start" x="116" y="-8.3" font-family="Times,serif" font-size="14.00" fill="#000000">_layout</text>
</g>
<!-- WinesController -->
<g id="node3" class="node">
<title>WinesController</title>
<path fill="none" stroke="#000000" d="M228,-126.5C228,-126.5 311,-126.5 311,-126.5 317,-126.5 323,-132.5 323,-138.5 323,-138.5 323,-327.5 323,-327.5 323,-333.5 317,-339.5 311,-339.5 311,-339.5 228,-339.5 228,-339.5 222,-339.5 216,-333.5 216,-327.5 216,-327.5 216,-138.5 216,-138.5 216,-132.5 222,-126.5 228,-126.5"/>
<text text-anchor="middle" x="269.5" y="-324.3" font-family="Times,serif" font-size="14.00" fill="#000000">WinesController</text>
<polyline fill="none" stroke="#000000" points="216,-316.5 323,-316.5 "/>
<text text-anchor="start" x="224" y="-301.3" font-family="Times,serif" font-size="14.00" fill="#000000">create</text>
<text text-anchor="start" x="224" y="-286.3" font-family="Times,serif" font-size="14.00" fill="#000000">destroy</text>
<text text-anchor="start" x="224" y="-271.3" font-family="Times,serif" font-size="14.00" fill="#000000">edit</text>
<text text-anchor="start" x="224" y="-256.3" font-family="Times,serif" font-size="14.00" fill="#000000">index</text>
<text text-anchor="start" x="224" y="-241.3" font-family="Times,serif" font-size="14.00" fill="#000000">new</text>
<text text-anchor="start" x="224" y="-226.3" font-family="Times,serif" font-size="14.00" fill="#000000">show</text>
<text text-anchor="start" x="224" y="-211.3" font-family="Times,serif" font-size="14.00" fill="#000000">update</text>
<polyline fill="none" stroke="#000000" points="216,-203.5 323,-203.5 "/>
<polyline fill="none" stroke="#000000" points="216,-179.5 323,-179.5 "/>
<text text-anchor="start" x="224" y="-164.3" font-family="Times,serif" font-size="14.00" fill="#000000">_layout</text>
<text text-anchor="start" x="224" y="-149.3" font-family="Times,serif" font-size="14.00" fill="#000000">set_wine</text>
<text text-anchor="start" x="224" y="-134.3" font-family="Times,serif" font-size="14.00" fill="#000000">wine_params</text>
</g>
<!-- StrainsController -->
<g id="node4" class="node">
<title>StrainsController</title>
<path fill="none" stroke="#000000" d="M264,-378.5C264,-378.5 350,-378.5 350,-378.5 356,-378.5 362,-384.5 362,-390.5 362,-390.5 362,-579.5 362,-579.5 362,-585.5 356,-591.5 350,-591.5 350,-591.5 264,-591.5 264,-591.5 258,-591.5 252,-585.5 252,-579.5 252,-579.5 252,-390.5 252,-390.5 252,-384.5 258,-378.5 264,-378.5"/>
<text text-anchor="middle" x="307" y="-576.3" font-family="Times,serif" font-size="14.00" fill="#000000">StrainsController</text>
<polyline fill="none" stroke="#000000" points="252,-568.5 362,-568.5 "/>
<text text-anchor="start" x="260" y="-553.3" font-family="Times,serif" font-size="14.00" fill="#000000">create</text>
<text text-anchor="start" x="260" y="-538.3" font-family="Times,serif" font-size="14.00" fill="#000000">destroy</text>
<text text-anchor="start" x="260" y="-523.3" font-family="Times,serif" font-size="14.00" fill="#000000">edit</text>
<text text-anchor="start" x="260" y="-508.3" font-family="Times,serif" font-size="14.00" fill="#000000">index</text>
<text text-anchor="start" x="260" y="-493.3" font-family="Times,serif" font-size="14.00" fill="#000000">new</text>
<text text-anchor="start" x="260" y="-478.3" font-family="Times,serif" font-size="14.00" fill="#000000">show</text>
<text text-anchor="start" x="260" y="-463.3" font-family="Times,serif" font-size="14.00" fill="#000000">update</text>
<polyline fill="none" stroke="#000000" points="252,-455.5 362,-455.5 "/>
<polyline fill="none" stroke="#000000" points="252,-431.5 362,-431.5 "/>
<text text-anchor="start" x="260" y="-416.3" font-family="Times,serif" font-size="14.00" fill="#000000">_layout</text>
<text text-anchor="start" x="260" y="-401.3" font-family="Times,serif" font-size="14.00" fill="#000000">set_strain</text>
<text text-anchor="start" x="260" y="-386.3" font-family="Times,serif" font-size="14.00" fill="#000000">strain_params</text>
</g>
<!-- ConectionStrainsController -->
<g id="node5" class="node">
<title>ConectionStrainsController</title>
<path fill="none" stroke="#000000" d="M30,-126.5C30,-126.5 171,-126.5 171,-126.5 177,-126.5 183,-132.5 183,-138.5 183,-138.5 183,-327.5 183,-327.5 183,-333.5 177,-339.5 171,-339.5 171,-339.5 30,-339.5 30,-339.5 24,-339.5 18,-333.5 18,-327.5 18,-327.5 18,-138.5 18,-138.5 18,-132.5 24,-126.5 30,-126.5"/>
<text text-anchor="middle" x="100.5" y="-324.3" font-family="Times,serif" font-size="14.00" fill="#000000">ConectionStrainsController</text>
<polyline fill="none" stroke="#000000" points="18,-316.5 183,-316.5 "/>
<text text-anchor="start" x="26" y="-301.3" font-family="Times,serif" font-size="14.00" fill="#000000">create</text>
<text text-anchor="start" x="26" y="-286.3" font-family="Times,serif" font-size="14.00" fill="#000000">destroy</text>
<text text-anchor="start" x="26" y="-271.3" font-family="Times,serif" font-size="14.00" fill="#000000">edit</text>
<text text-anchor="start" x="26" y="-256.3" font-family="Times,serif" font-size="14.00" fill="#000000">index</text>
<text text-anchor="start" x="26" y="-241.3" font-family="Times,serif" font-size="14.00" fill="#000000">new</text>
<text text-anchor="start" x="26" y="-226.3" font-family="Times,serif" font-size="14.00" fill="#000000">show</text>
<text text-anchor="start" x="26" y="-211.3" font-family="Times,serif" font-size="14.00" fill="#000000">update</text>
<polyline fill="none" stroke="#000000" points="18,-203.5 183,-203.5 "/>
<polyline fill="none" stroke="#000000" points="18,-179.5 183,-179.5 "/>
<text text-anchor="start" x="26" y="-164.3" font-family="Times,serif" font-size="14.00" fill="#000000">_layout</text>
<text text-anchor="start" x="26" y="-149.3" font-family="Times,serif" font-size="14.00" fill="#000000">conection_strain_params</text>
<text text-anchor="start" x="26" y="-134.3" font-family="Times,serif" font-size="14.00" fill="#000000">set_conection_strain</text>
</g>
</g>
</svg>
