<?xml version="1.0" encoding="UTF-8" standalone="no"?>
<!DOCTYPE svg PUBLIC "-//W3C//DTD SVG 1.1//EN"
 "http://www.w3.org/Graphics/SVG/1.1/DTD/svg11.dtd">
<!-- Generated by graphviz version 2.40.1 (20161225.0304)
 -->
<!-- Title: models_diagram Pages: 1 -->
<svg width="511pt" height="230pt"
 viewBox="0.00 0.00 510.59 230.00" xmlns="http://www.w3.org/2000/svg" xmlns:xlink="http://www.w3.org/1999/xlink">
<g id="graph0" class="graph" transform="scale(1 1) rotate(0) translate(4 226)">
<title>models_diagram</title>
<polygon fill="transparent" stroke="transparent" points="-4,4 -4,-226 506.594,-226 506.594,4 -4,4"/>
<!-- _diagram_info -->
<g id="node1" class="node">
<title>_diagram_info</title>
<text text-anchor="start" x="8" y="-207.6" font-family="Times,serif" font-size="13.00" fill="#000000">Models diagram</text>
<text text-anchor="start" x="8" y="-193.6" font-family="Times,serif" font-size="13.00" fill="#000000">Date: May 14 2020 &#45; 20:58</text>
<text text-anchor="start" x="8" y="-179.6" font-family="Times,serif" font-size="13.00" fill="#000000">Migration version: 20200515005354</text>
<text text-anchor="start" x="8" y="-165.6" font-family="Times,serif" font-size="13.00" fill="#000000">Generated by RailRoady 1.5.3</text>
<text text-anchor="start" x="8" y="-151.6" font-family="Times,serif" font-size="13.00" fill="#000000">http://railroady.prestonlee.com</text>
</g>
<!-- ApplicationRecord -->
<g id="node2" class="node">
<title>ApplicationRecord</title>
<ellipse fill="none" stroke="#000000" cx="309" cy="-183" rx="77.1866" ry="18"/>
<text text-anchor="middle" x="309" y="-179.3" font-family="Times,serif" font-size="14.00" fill="#000000">ApplicationRecord</text>
</g>
<!-- Wine -->
<g id="node3" class="node">
<title>Wine</title>
<ellipse fill="none" stroke="#000000" cx="435" cy="-183" rx="30.5947" ry="18"/>
<text text-anchor="middle" x="435" y="-179.3" font-family="Times,serif" font-size="14.00" fill="#000000">Wine</text>
</g>
<!-- ConectionStrain -->
<g id="node4" class="node">
<title>ConectionStrain</title>
<ellipse fill="none" stroke="#000000" cx="435" cy="-18" rx="67.6881" ry="18"/>
<text text-anchor="middle" x="435" y="-14.3" font-family="Times,serif" font-size="14.00" fill="#000000">ConectionStrain</text>
</g>
<!-- Wine&#45;&gt;ConectionStrain -->
<g id="edge1" class="edge">
<title>Wine&#45;&gt;ConectionStrain</title>
<path fill="none" stroke="#25007b" d="M429.4653,-156.866C425.4061,-134.3708 421.0718,-101.0443 424,-72 424.8502,-63.5665 426.4294,-54.5029 428.1311,-46.2554"/>
<ellipse fill="none" stroke="#25007b" cx="430.2474" cy="-160.9955" rx="4" ry="4"/>
<polygon fill="#25007b" stroke="#25007b" points="428.1606,-46.1208 434.7018,-37.3194 429.2336,-41.2373 430.3066,-36.3537 430.3066,-36.3537 430.3066,-36.3537 429.2336,-41.2373 425.9114,-35.388 428.1606,-46.1208 428.1606,-46.1208"/>
</g>
<!-- Strain -->
<g id="node5" class="node">
<title>Strain</title>
<ellipse fill="none" stroke="#000000" cx="465" cy="-90" rx="31.6951" ry="18"/>
<text text-anchor="middle" x="465" y="-86.3" font-family="Times,serif" font-size="14.00" fill="#000000">Strain</text>
</g>
<!-- Wine&#45;&gt;Strain -->
<g id="edge2" class="edge">
<title>Wine&#45;&gt;Strain</title>
<path fill="none" stroke="#accfcc" d="M443.8626,-155.5259C447.7427,-143.4977 452.2848,-129.4171 456.1621,-117.3976"/>
<polygon fill="#accfcc" stroke="#accfcc" points="443.8544,-155.5516 436.5016,-163.6871 442.3194,-160.3101 440.7843,-165.0687 440.7843,-165.0687 440.7843,-165.0687 442.3194,-160.3101 445.067,-166.4502 443.8544,-155.5516 443.8544,-155.5516"/>
<polygon fill="#accfcc" stroke="#accfcc" points="456.1634,-117.3934 463.5161,-109.2578 457.6984,-112.6348 459.2335,-107.8763 459.2335,-107.8763 459.2335,-107.8763 457.6984,-112.6348 454.9508,-106.4947 456.1634,-117.3934 456.1634,-117.3934"/>
</g>
<!-- Strain&#45;&gt;ConectionStrain -->
<g id="edge3" class="edge">
<title>Strain&#45;&gt;ConectionStrain</title>
<path fill="none" stroke="#9c0f93" d="M454.4209,-64.6102C451.8474,-58.4338 449.0833,-51.7999 446.4706,-45.5295"/>
<ellipse fill="none" stroke="#9c0f93" cx="456.0458" cy="-68.5099" rx="4" ry="4"/>
<polygon fill="#9c0f93" stroke="#9c0f93" points="446.385,-45.3239 446.6926,-34.3623 444.4619,-40.7085 442.5388,-36.0931 442.5388,-36.0931 442.5388,-36.0931 444.4619,-40.7085 438.385,-37.8239 446.385,-45.3239 446.385,-45.3239"/>
</g>
</g>
</svg>
