<?xml version="1.0" encoding="UTF-8" standalone="no"?>
<!DOCTYPE svg PUBLIC "-//W3C//DTD SVG 1.1//EN"
 "http://www.w3.org/Graphics/SVG/1.1/DTD/svg11.dtd">
<!-- Generated by graphviz version 2.40.1 (20161225.0304)
 -->
<!-- Title: models_diagram Pages: 1 -->
<svg width="591pt" height="386pt"
 viewBox="0.00 0.00 590.50 386.00" xmlns="http://www.w3.org/2000/svg" xmlns:xlink="http://www.w3.org/1999/xlink">
<g id="graph0" class="graph" transform="scale(1 1) rotate(0) translate(4 382)">
<title>models_diagram</title>
<polygon fill="transparent" stroke="transparent" points="-4,4 -4,-382 586.5,-382 586.5,4 -4,4"/>
<!-- _diagram_info -->
<g id="node1" class="node">
<title>_diagram_info</title>
<text text-anchor="start" x="8" y="-349.1" font-family="Times,serif" font-size="13.00" fill="#000000">Models diagram</text>
<text text-anchor="start" x="8" y="-335.1" font-family="Times,serif" font-size="13.00" fill="#000000">Date: May 14 2020 &#45; 20:58</text>
<text text-anchor="start" x="8" y="-321.1" font-family="Times,serif" font-size="13.00" fill="#000000">Migration version: 20200515005354</text>
<text text-anchor="start" x="8" y="-307.1" font-family="Times,serif" font-size="13.00" fill="#000000">Generated by RailRoady 1.5.3</text>
<text text-anchor="start" x="8" y="-293.1" font-family="Times,serif" font-size="13.00" fill="#000000">http://railroady.prestonlee.com</text>
</g>
<!-- ApplicationRecord -->
<g id="node2" class="node">
<title>ApplicationRecord</title>
<ellipse fill="none" stroke="#000000" cx="309" cy="-324.5" rx="77.1866" ry="18"/>
<text text-anchor="middle" x="309" y="-320.8" font-family="Times,serif" font-size="14.00" fill="#000000">ApplicationRecord</text>
</g>
<!-- Wine -->
<g id="node3" class="node">
<title>Wine</title>
<path fill="none" stroke="#000000" d="M416.5,-271.5C416.5,-271.5 523.5,-271.5 523.5,-271.5 529.5,-271.5 535.5,-277.5 535.5,-283.5 535.5,-283.5 535.5,-365.5 535.5,-365.5 535.5,-371.5 529.5,-377.5 523.5,-377.5 523.5,-377.5 416.5,-377.5 416.5,-377.5 410.5,-377.5 404.5,-371.5 404.5,-365.5 404.5,-365.5 404.5,-283.5 404.5,-283.5 404.5,-277.5 410.5,-271.5 416.5,-271.5"/>
<text text-anchor="middle" x="470" y="-362.3" font-family="Times,serif" font-size="14.00" fill="#000000">Wine</text>
<polyline fill="none" stroke="#000000" points="404.5,-354.5 535.5,-354.5 "/>
<text text-anchor="start" x="412.5" y="-339.3" font-family="Times,serif" font-size="14.00" fill="#000000">id :integer</text>
<text text-anchor="start" x="412.5" y="-324.3" font-family="Times,serif" font-size="14.00" fill="#000000">name :varchar</text>
<text text-anchor="start" x="412.5" y="-309.3" font-family="Times,serif" font-size="14.00" fill="#000000">qualification :integer</text>
<text text-anchor="start" x="412.5" y="-294.3" font-family="Times,serif" font-size="14.00" fill="#000000">created_at :datetime</text>
<text text-anchor="start" x="412.5" y="-279.3" font-family="Times,serif" font-size="14.00" fill="#000000">updated_at :datetime</text>
</g>
<!-- ConectionStrain -->
<g id="node4" class="node">
<title>ConectionStrain</title>
<path fill="none" stroke="#000000" d="M416.5,-.5C416.5,-.5 523.5,-.5 523.5,-.5 529.5,-.5 535.5,-6.5 535.5,-12.5 535.5,-12.5 535.5,-94.5 535.5,-94.5 535.5,-100.5 529.5,-106.5 523.5,-106.5 523.5,-106.5 416.5,-106.5 416.5,-106.5 410.5,-106.5 404.5,-100.5 404.5,-94.5 404.5,-94.5 404.5,-12.5 404.5,-12.5 404.5,-6.5 410.5,-.5 416.5,-.5"/>
<text text-anchor="middle" x="470" y="-91.3" font-family="Times,serif" font-size="14.00" fill="#000000">ConectionStrain</text>
<polyline fill="none" stroke="#000000" points="404.5,-83.5 535.5,-83.5 "/>
<text text-anchor="start" x="412.5" y="-68.3" font-family="Times,serif" font-size="14.00" fill="#000000">id :integer</text>
<text text-anchor="start" x="412.5" y="-53.3" font-family="Times,serif" font-size="14.00" fill="#000000">wine_id :integer</text>
<text text-anchor="start" x="412.5" y="-38.3" font-family="Times,serif" font-size="14.00" fill="#000000">strain_id :integer</text>
<text text-anchor="start" x="412.5" y="-23.3" font-family="Times,serif" font-size="14.00" fill="#000000">created_at :datetime</text>
<text text-anchor="start" x="412.5" y="-8.3" font-family="Times,serif" font-size="14.00" fill="#000000">updated_at :datetime</text>
</g>
<!-- Wine&#45;&gt;ConectionStrain -->
<g id="edge1" class="edge">
<title>Wine&#45;&gt;ConectionStrain</title>
<path fill="none" stroke="#a664ae" d="M448.1948,-263.3612C445.6289,-253.9708 443.4215,-244.3044 442,-235 435.8249,-194.5801 435.8249,-183.4199 442,-143 443.322,-134.3469 445.3237,-125.3807 447.6614,-116.6146"/>
<ellipse fill="none" stroke="#a664ae" cx="449.3266" cy="-267.324" rx="4" ry="4"/>
<polygon fill="#a664ae" stroke="#a664ae" points="447.7069,-116.4533 454.7557,-108.053 449.066,-111.6415 450.4251,-106.8298 450.4251,-106.8298 450.4251,-106.8298 449.066,-111.6415 446.0945,-105.6066 447.7069,-116.4533 447.7069,-116.4533"/>
</g>
<!-- Strain -->
<g id="node5" class="node">
<title>Strain</title>
<path fill="none" stroke="#000000" d="M463.5,-143.5C463.5,-143.5 570.5,-143.5 570.5,-143.5 576.5,-143.5 582.5,-149.5 582.5,-155.5 582.5,-155.5 582.5,-222.5 582.5,-222.5 582.5,-228.5 576.5,-234.5 570.5,-234.5 570.5,-234.5 463.5,-234.5 463.5,-234.5 457.5,-234.5 451.5,-228.5 451.5,-222.5 451.5,-222.5 451.5,-155.5 451.5,-155.5 451.5,-149.5 457.5,-143.5 463.5,-143.5"/>
<text text-anchor="middle" x="517" y="-219.3" font-family="Times,serif" font-size="14.00" fill="#000000">Strain</text>
<polyline fill="none" stroke="#000000" points="451.5,-211.5 582.5,-211.5 "/>
<text text-anchor="start" x="459.5" y="-196.3" font-family="Times,serif" font-size="14.00" fill="#000000">id :integer</text>
<text text-anchor="start" x="459.5" y="-181.3" font-family="Times,serif" font-size="14.00" fill="#000000">name :varchar</text>
<text text-anchor="start" x="459.5" y="-166.3" font-family="Times,serif" font-size="14.00" fill="#000000">created_at :datetime</text>
<text text-anchor="start" x="459.5" y="-151.3" font-family="Times,serif" font-size="14.00" fill="#000000">updated_at :datetime</text>
</g>
<!-- Wine&#45;&gt;Strain -->
<g id="edge2" class="edge">
<title>Wine&#45;&gt;Strain</title>
<path fill="none" stroke="#846195" d="M491.7384,-261.8286C493.7814,-255.9386 495.8423,-249.9972 497.8588,-244.1837"/>
<polygon fill="#846195" stroke="#846195" points="491.7179,-261.8879 484.1892,-269.861 490.0793,-266.6118 488.4407,-271.3357 488.4407,-271.3357 488.4407,-271.3357 490.0793,-266.6118 492.6923,-272.8104 491.7179,-261.8879 491.7179,-261.8879"/>
<polygon fill="#846195" stroke="#846195" points="497.9223,-244.0003 505.451,-236.0272 499.5609,-239.2764 501.1995,-234.5525 501.1995,-234.5525 501.1995,-234.5525 499.5609,-239.2764 496.948,-233.0778 497.9223,-244.0003 497.9223,-244.0003"/>
</g>
<!-- Strain&#45;&gt;ConectionStrain -->
<g id="edge3" class="edge">
<title>Strain&#45;&gt;ConectionStrain</title>
<path fill="none" stroke="#b20c60" d="M498.389,-135.345C496.2519,-129.1836 494.0583,-122.8594 491.8832,-116.5888"/>
<ellipse fill="none" stroke="#b20c60" cx="499.7771" cy="-139.3468" rx="4" ry="4"/>
<polygon fill="#b20c60" stroke="#b20c60" points="491.7685,-116.2579 492.7428,-105.3354 490.1299,-111.534 488.4913,-106.8101 488.4913,-106.8101 488.4913,-106.8101 490.1299,-111.534 484.2398,-108.2848 491.7685,-116.2579 491.7685,-116.2579"/>
</g>
</g>
</svg>
